<mxfile host="app.diagrams.net" modified="2021-08-25T11:00:53.976Z" agent="5.0 (Windows NT 10.0; Win64; x64) AppleWebKit/537.36 (KHTML, like Gecko) Chrome/91.0.4472.124 Safari/537.36" etag="nshZeETso2kAzbcLPfBM" version="14.9.8" type="github">
  <diagram id="U75D6ok_2tAu_uyZ1ZS5" name="注册中心-registry">
    <mxGraphModel dx="868" dy="492" grid="1" gridSize="10" guides="1" tooltips="1" connect="1" arrows="1" fold="1" page="1" pageScale="1" pageWidth="827" pageHeight="1169" math="0" shadow="0">
      <root>
        <mxCell id="0" />
        <mxCell id="1" parent="0" />
        <mxCell id="jPJzqkFTm8ux6lbCC3V2-60" value="zk 集群" style="ellipse;whiteSpace=wrap;html=1;" vertex="1" parent="1">
          <mxGeometry x="420" y="500" width="230" height="115" as="geometry" />
        </mxCell>
        <mxCell id="jPJzqkFTm8ux6lbCC3V2-1" value="" style="endArrow=none;html=1;" edge="1" parent="1">
          <mxGeometry width="50" height="50" relative="1" as="geometry">
            <mxPoint y="20" as="sourcePoint" />
            <mxPoint x="820" y="20" as="targetPoint" />
          </mxGeometry>
        </mxCell>
        <mxCell id="jPJzqkFTm8ux6lbCC3V2-2" value="注册中心" style="edgeLabel;html=1;align=center;verticalAlign=middle;resizable=0;points=[];" vertex="1" connectable="0" parent="jPJzqkFTm8ux6lbCC3V2-1">
          <mxGeometry x="-0.8537" y="-2" relative="1" as="geometry">
            <mxPoint as="offset" />
          </mxGeometry>
        </mxCell>
        <mxCell id="jPJzqkFTm8ux6lbCC3V2-3" value="&lt;font style=&quot;font-size: 14px&quot;&gt;Registry&amp;nbsp; 应用本地的注册中心客户端&lt;/font&gt;" style="text;html=1;align=center;verticalAlign=middle;resizable=0;points=[];autosize=1;strokeColor=none;" vertex="1" parent="1">
          <mxGeometry x="5" y="60" width="240" height="20" as="geometry" />
        </mxCell>
        <mxCell id="jPJzqkFTm8ux6lbCC3V2-5" value="Node" style="rounded=1;whiteSpace=wrap;html=1;" vertex="1" parent="1">
          <mxGeometry x="429" y="110" width="70" height="30" as="geometry" />
        </mxCell>
        <mxCell id="jPJzqkFTm8ux6lbCC3V2-6" value="抽象节点的概念" style="text;html=1;align=center;verticalAlign=middle;resizable=0;points=[];autosize=1;strokeColor=none;" vertex="1" parent="1">
          <mxGeometry x="414" y="90" width="100" height="20" as="geometry" />
        </mxCell>
        <mxCell id="jPJzqkFTm8ux6lbCC3V2-7" value="RegistrySrvice" style="rounded=1;whiteSpace=wrap;html=1;" vertex="1" parent="1">
          <mxGeometry x="593" y="110" width="116" height="30" as="geometry" />
        </mxCell>
        <mxCell id="jPJzqkFTm8ux6lbCC3V2-8" value="注册服务的基本行为" style="text;html=1;align=center;verticalAlign=middle;resizable=0;points=[];autosize=1;strokeColor=none;" vertex="1" parent="1">
          <mxGeometry x="589" y="80" width="120" height="20" as="geometry" />
        </mxCell>
        <mxCell id="jPJzqkFTm8ux6lbCC3V2-11" style="edgeStyle=orthogonalEdgeStyle;rounded=0;orthogonalLoop=1;jettySize=auto;html=1;exitX=0.5;exitY=0;exitDx=0;exitDy=0;entryX=0.6;entryY=1.1;entryDx=0;entryDy=0;entryPerimeter=0;" edge="1" parent="1" source="jPJzqkFTm8ux6lbCC3V2-9" target="jPJzqkFTm8ux6lbCC3V2-5">
          <mxGeometry relative="1" as="geometry" />
        </mxCell>
        <mxCell id="jPJzqkFTm8ux6lbCC3V2-12" style="edgeStyle=orthogonalEdgeStyle;rounded=0;orthogonalLoop=1;jettySize=auto;html=1;exitX=0.5;exitY=0;exitDx=0;exitDy=0;entryX=0.5;entryY=1;entryDx=0;entryDy=0;" edge="1" parent="1" source="jPJzqkFTm8ux6lbCC3V2-9" target="jPJzqkFTm8ux6lbCC3V2-7">
          <mxGeometry relative="1" as="geometry" />
        </mxCell>
        <mxCell id="jPJzqkFTm8ux6lbCC3V2-25" style="edgeStyle=orthogonalEdgeStyle;rounded=0;orthogonalLoop=1;jettySize=auto;html=1;exitX=0.25;exitY=1;exitDx=0;exitDy=0;entryX=0.409;entryY=-0.067;entryDx=0;entryDy=0;entryPerimeter=0;" edge="1" parent="1" source="jPJzqkFTm8ux6lbCC3V2-9" target="jPJzqkFTm8ux6lbCC3V2-22">
          <mxGeometry relative="1" as="geometry" />
        </mxCell>
        <mxCell id="jPJzqkFTm8ux6lbCC3V2-9" value="Registry" style="rounded=1;whiteSpace=wrap;html=1;" vertex="1" parent="1">
          <mxGeometry x="499" y="200" width="100" height="30" as="geometry" />
        </mxCell>
        <mxCell id="jPJzqkFTm8ux6lbCC3V2-13" value="拥有注册能力的节点" style="text;html=1;align=center;verticalAlign=middle;resizable=0;points=[];autosize=1;strokeColor=none;" vertex="1" parent="1">
          <mxGeometry x="609" y="205" width="120" height="20" as="geometry" />
        </mxCell>
        <mxCell id="jPJzqkFTm8ux6lbCC3V2-20" style="edgeStyle=orthogonalEdgeStyle;rounded=0;orthogonalLoop=1;jettySize=auto;html=1;exitX=1;exitY=0.5;exitDx=0;exitDy=0;entryX=0;entryY=0.75;entryDx=0;entryDy=0;" edge="1" parent="1" source="jPJzqkFTm8ux6lbCC3V2-14" target="jPJzqkFTm8ux6lbCC3V2-9">
          <mxGeometry relative="1" as="geometry">
            <mxPoint x="550" y="248" as="targetPoint" />
          </mxGeometry>
        </mxCell>
        <mxCell id="jPJzqkFTm8ux6lbCC3V2-48" style="edgeStyle=none;rounded=0;orthogonalLoop=1;jettySize=auto;html=1;exitX=0.5;exitY=1;exitDx=0;exitDy=0;" edge="1" parent="1" source="jPJzqkFTm8ux6lbCC3V2-14">
          <mxGeometry relative="1" as="geometry">
            <mxPoint x="340" y="350" as="targetPoint" />
          </mxGeometry>
        </mxCell>
        <mxCell id="jPJzqkFTm8ux6lbCC3V2-14" value="RegistryFactory" style="rounded=1;whiteSpace=wrap;html=1;" vertex="1" parent="1">
          <mxGeometry x="285" y="205" width="110" height="35" as="geometry" />
        </mxCell>
        <mxCell id="jPJzqkFTm8ux6lbCC3V2-15" value="工厂接口：负责创建Registry 对象" style="text;html=1;align=center;verticalAlign=middle;resizable=0;points=[];autosize=1;strokeColor=none;" vertex="1" parent="1">
          <mxGeometry x="270" y="180" width="190" height="20" as="geometry" />
        </mxCell>
        <mxCell id="jPJzqkFTm8ux6lbCC3V2-18" style="edgeStyle=orthogonalEdgeStyle;rounded=0;orthogonalLoop=1;jettySize=auto;html=1;exitX=1;exitY=0.25;exitDx=0;exitDy=0;entryX=0.25;entryY=1;entryDx=0;entryDy=0;" edge="1" parent="1" source="jPJzqkFTm8ux6lbCC3V2-17" target="jPJzqkFTm8ux6lbCC3V2-14">
          <mxGeometry relative="1" as="geometry" />
        </mxCell>
        <mxCell id="jPJzqkFTm8ux6lbCC3V2-19" value="封装了一个 ListenerRegistryWrapper" style="edgeLabel;html=1;align=center;verticalAlign=middle;resizable=0;points=[];" vertex="1" connectable="0" parent="jPJzqkFTm8ux6lbCC3V2-18">
          <mxGeometry x="-0.1078" y="1" relative="1" as="geometry">
            <mxPoint x="-155" y="-28" as="offset" />
          </mxGeometry>
        </mxCell>
        <mxCell id="jPJzqkFTm8ux6lbCC3V2-17" value="RegistryFactoryWrapper" style="rounded=1;whiteSpace=wrap;html=1;" vertex="1" parent="1">
          <mxGeometry x="10" y="320" width="150" height="35" as="geometry" />
        </mxCell>
        <mxCell id="jPJzqkFTm8ux6lbCC3V2-26" style="edgeStyle=orthogonalEdgeStyle;rounded=0;orthogonalLoop=1;jettySize=auto;html=1;exitX=0.25;exitY=1;exitDx=0;exitDy=0;" edge="1" parent="1" source="jPJzqkFTm8ux6lbCC3V2-22">
          <mxGeometry relative="1" as="geometry">
            <mxPoint x="507" y="380" as="targetPoint" />
          </mxGeometry>
        </mxCell>
        <mxCell id="jPJzqkFTm8ux6lbCC3V2-22" value="AbstractRegistry" style="rounded=1;whiteSpace=wrap;html=1;" vertex="1" parent="1">
          <mxGeometry x="479" y="310" width="110" height="30" as="geometry" />
        </mxCell>
        <mxCell id="jPJzqkFTm8ux6lbCC3V2-23" value="将当前节点订阅的URL信息缓存到本地Properties 文件中" style="text;html=1;align=center;verticalAlign=middle;resizable=0;points=[];autosize=1;strokeColor=none;" vertex="1" parent="1">
          <mxGeometry x="440" y="280" width="310" height="20" as="geometry" />
        </mxCell>
        <mxCell id="jPJzqkFTm8ux6lbCC3V2-27" value="FailbackRegistry&amp;nbsp;" style="rounded=1;whiteSpace=wrap;html=1;" vertex="1" parent="1">
          <mxGeometry x="479" y="380" width="101" height="30" as="geometry" />
        </mxCell>
        <mxCell id="jPJzqkFTm8ux6lbCC3V2-28" value="失败的任务提交到时间轮" style="text;html=1;align=center;verticalAlign=middle;resizable=0;points=[];autosize=1;strokeColor=none;" vertex="1" parent="1">
          <mxGeometry x="620" y="390" width="150" height="20" as="geometry" />
        </mxCell>
        <mxCell id="jPJzqkFTm8ux6lbCC3V2-29" value="提供了重试机制" style="text;html=1;align=center;verticalAlign=middle;resizable=0;points=[];autosize=1;strokeColor=none;" vertex="1" parent="1">
          <mxGeometry x="589" y="370" width="100" height="20" as="geometry" />
        </mxCell>
        <mxCell id="jPJzqkFTm8ux6lbCC3V2-30" value="" style="endArrow=none;html=1;" edge="1" parent="1">
          <mxGeometry width="50" height="50" relative="1" as="geometry">
            <mxPoint x="10" y="960" as="sourcePoint" />
            <mxPoint x="810" y="960" as="targetPoint" />
          </mxGeometry>
        </mxCell>
        <mxCell id="jPJzqkFTm8ux6lbCC3V2-31" value="dubbo 节点的层次结构" style="edgeLabel;html=1;align=center;verticalAlign=middle;resizable=0;points=[];" vertex="1" connectable="0" parent="jPJzqkFTm8ux6lbCC3V2-30">
          <mxGeometry x="-0.8375" y="-1" relative="1" as="geometry">
            <mxPoint x="45" as="offset" />
          </mxGeometry>
        </mxCell>
        <mxCell id="jPJzqkFTm8ux6lbCC3V2-36" style="rounded=0;orthogonalLoop=1;jettySize=auto;html=1;exitX=0;exitY=0.5;exitDx=0;exitDy=0;entryX=0.5;entryY=0;entryDx=0;entryDy=0;" edge="1" parent="1" source="jPJzqkFTm8ux6lbCC3V2-32" target="jPJzqkFTm8ux6lbCC3V2-33">
          <mxGeometry relative="1" as="geometry" />
        </mxCell>
        <mxCell id="jPJzqkFTm8ux6lbCC3V2-32" value="dubbo" style="ellipse;whiteSpace=wrap;html=1;" vertex="1" parent="1">
          <mxGeometry x="330" y="980" width="70" height="30" as="geometry" />
        </mxCell>
        <mxCell id="jPJzqkFTm8ux6lbCC3V2-37" style="edgeStyle=none;rounded=0;orthogonalLoop=1;jettySize=auto;html=1;exitX=0.5;exitY=1;exitDx=0;exitDy=0;entryX=0.5;entryY=0;entryDx=0;entryDy=0;" edge="1" parent="1" source="jPJzqkFTm8ux6lbCC3V2-33" target="jPJzqkFTm8ux6lbCC3V2-34">
          <mxGeometry relative="1" as="geometry" />
        </mxCell>
        <mxCell id="jPJzqkFTm8ux6lbCC3V2-38" style="edgeStyle=none;rounded=0;orthogonalLoop=1;jettySize=auto;html=1;exitX=0.5;exitY=1;exitDx=0;exitDy=0;entryX=0.5;entryY=0;entryDx=0;entryDy=0;" edge="1" parent="1" source="jPJzqkFTm8ux6lbCC3V2-33" target="jPJzqkFTm8ux6lbCC3V2-35">
          <mxGeometry relative="1" as="geometry" />
        </mxCell>
        <mxCell id="jPJzqkFTm8ux6lbCC3V2-44" style="edgeStyle=none;rounded=0;orthogonalLoop=1;jettySize=auto;html=1;exitX=0.5;exitY=1;exitDx=0;exitDy=0;" edge="1" parent="1" source="jPJzqkFTm8ux6lbCC3V2-33">
          <mxGeometry relative="1" as="geometry">
            <mxPoint x="360" y="1090" as="targetPoint" />
          </mxGeometry>
        </mxCell>
        <mxCell id="jPJzqkFTm8ux6lbCC3V2-46" style="edgeStyle=none;rounded=0;orthogonalLoop=1;jettySize=auto;html=1;exitX=0.5;exitY=1;exitDx=0;exitDy=0;" edge="1" parent="1" source="jPJzqkFTm8ux6lbCC3V2-33">
          <mxGeometry relative="1" as="geometry">
            <mxPoint x="480" y="1100" as="targetPoint" />
          </mxGeometry>
        </mxCell>
        <mxCell id="jPJzqkFTm8ux6lbCC3V2-33" value="com.yuluo.service" style="ellipse;whiteSpace=wrap;html=1;" vertex="1" parent="1">
          <mxGeometry x="200" y="1030" width="115" height="30" as="geometry" />
        </mxCell>
        <mxCell id="jPJzqkFTm8ux6lbCC3V2-41" style="edgeStyle=none;rounded=0;orthogonalLoop=1;jettySize=auto;html=1;exitX=0.5;exitY=1;exitDx=0;exitDy=0;entryX=0.5;entryY=0;entryDx=0;entryDy=0;" edge="1" parent="1" source="jPJzqkFTm8ux6lbCC3V2-34" target="jPJzqkFTm8ux6lbCC3V2-39">
          <mxGeometry relative="1" as="geometry" />
        </mxCell>
        <mxCell id="jPJzqkFTm8ux6lbCC3V2-68" style="edgeStyle=none;rounded=0;orthogonalLoop=1;jettySize=auto;html=1;exitX=0.5;exitY=1;exitDx=0;exitDy=0;" edge="1" parent="1" source="jPJzqkFTm8ux6lbCC3V2-34" target="jPJzqkFTm8ux6lbCC3V2-67">
          <mxGeometry relative="1" as="geometry" />
        </mxCell>
        <mxCell id="jPJzqkFTm8ux6lbCC3V2-34" value="providers" style="ellipse;whiteSpace=wrap;html=1;" vertex="1" parent="1">
          <mxGeometry x="160" y="1090" width="70" height="30" as="geometry" />
        </mxCell>
        <mxCell id="jPJzqkFTm8ux6lbCC3V2-35" value="consumers" style="ellipse;whiteSpace=wrap;html=1;" vertex="1" parent="1">
          <mxGeometry x="240" y="1090" width="70" height="30" as="geometry" />
        </mxCell>
        <mxCell id="jPJzqkFTm8ux6lbCC3V2-39" value="host:ip" style="ellipse;whiteSpace=wrap;html=1;" vertex="1" parent="1">
          <mxGeometry x="80" y="1169" width="60" height="30" as="geometry" />
        </mxCell>
        <mxCell id="jPJzqkFTm8ux6lbCC3V2-45" value="routes" style="ellipse;whiteSpace=wrap;html=1;" vertex="1" parent="1">
          <mxGeometry x="330" y="1090" width="70" height="30" as="geometry" />
        </mxCell>
        <mxCell id="jPJzqkFTm8ux6lbCC3V2-47" value="configurations" style="ellipse;whiteSpace=wrap;html=1;" vertex="1" parent="1">
          <mxGeometry x="429" y="1100" width="96" height="30" as="geometry" />
        </mxCell>
        <mxCell id="jPJzqkFTm8ux6lbCC3V2-49" value="AbstractRegistryFactory" style="rounded=1;whiteSpace=wrap;html=1;" vertex="1" parent="1">
          <mxGeometry x="260" y="349" width="135" height="33" as="geometry" />
        </mxCell>
        <mxCell id="jPJzqkFTm8ux6lbCC3V2-51" style="edgeStyle=none;rounded=0;orthogonalLoop=1;jettySize=auto;html=1;exitX=1;exitY=0.5;exitDx=0;exitDy=0;" edge="1" parent="1" source="jPJzqkFTm8ux6lbCC3V2-50">
          <mxGeometry relative="1" as="geometry">
            <mxPoint x="240" y="557.5" as="targetPoint" />
          </mxGeometry>
        </mxCell>
        <mxCell id="jPJzqkFTm8ux6lbCC3V2-50" value="ZookeeperTransporter" style="rounded=1;whiteSpace=wrap;html=1;" vertex="1" parent="1">
          <mxGeometry x="10" y="537.5" width="140" height="40" as="geometry" />
        </mxCell>
        <mxCell id="jPJzqkFTm8ux6lbCC3V2-54" style="edgeStyle=none;rounded=0;orthogonalLoop=1;jettySize=auto;html=1;exitX=1;exitY=0.5;exitDx=0;exitDy=0;" edge="1" parent="1" source="jPJzqkFTm8ux6lbCC3V2-52">
          <mxGeometry relative="1" as="geometry">
            <mxPoint x="420" y="557.5" as="targetPoint" />
          </mxGeometry>
        </mxCell>
        <mxCell id="jPJzqkFTm8ux6lbCC3V2-62" style="edgeStyle=none;rounded=0;orthogonalLoop=1;jettySize=auto;html=1;exitX=0.5;exitY=1;exitDx=0;exitDy=0;" edge="1" parent="1" source="jPJzqkFTm8ux6lbCC3V2-52">
          <mxGeometry relative="1" as="geometry">
            <mxPoint x="300" y="637.5" as="targetPoint" />
          </mxGeometry>
        </mxCell>
        <mxCell id="jPJzqkFTm8ux6lbCC3V2-52" value="ZookeeperClient" style="rounded=1;whiteSpace=wrap;html=1;" vertex="1" parent="1">
          <mxGeometry x="240" y="537.5" width="120" height="40" as="geometry" />
        </mxCell>
        <mxCell id="jPJzqkFTm8ux6lbCC3V2-53" value="创建" style="text;html=1;align=center;verticalAlign=middle;resizable=0;points=[];autosize=1;strokeColor=none;" vertex="1" parent="1">
          <mxGeometry x="170" y="527.5" width="40" height="20" as="geometry" />
        </mxCell>
        <mxCell id="jPJzqkFTm8ux6lbCC3V2-55" value="实例" style="text;html=1;align=center;verticalAlign=middle;resizable=0;points=[];autosize=1;strokeColor=none;" vertex="1" parent="1">
          <mxGeometry x="360" y="537.5" width="40" height="20" as="geometry" />
        </mxCell>
        <mxCell id="jPJzqkFTm8ux6lbCC3V2-56" value="" style="ellipse;whiteSpace=wrap;html=1;" vertex="1" parent="1">
          <mxGeometry x="440" y="547.5" width="70" height="30" as="geometry" />
        </mxCell>
        <mxCell id="jPJzqkFTm8ux6lbCC3V2-57" value="" style="ellipse;whiteSpace=wrap;html=1;" vertex="1" parent="1">
          <mxGeometry x="520" y="507.5" width="70" height="30" as="geometry" />
        </mxCell>
        <mxCell id="jPJzqkFTm8ux6lbCC3V2-58" value="" style="ellipse;whiteSpace=wrap;html=1;" vertex="1" parent="1">
          <mxGeometry x="550" y="572.5" width="70" height="30" as="geometry" />
        </mxCell>
        <mxCell id="jPJzqkFTm8ux6lbCC3V2-63" value="添加一个连接状态监听器" style="rounded=1;whiteSpace=wrap;html=1;" vertex="1" parent="1">
          <mxGeometry x="290" y="637.5" width="140" height="30" as="geometry" />
        </mxCell>
        <mxCell id="jPJzqkFTm8ux6lbCC3V2-64" value="reconnected" style="rounded=1;whiteSpace=wrap;html=1;" vertex="1" parent="1">
          <mxGeometry x="440" y="677.5" width="100" height="30" as="geometry" />
        </mxCell>
        <mxCell id="jPJzqkFTm8ux6lbCC3V2-65" value="new_session_created" style="rounded=1;whiteSpace=wrap;html=1;" vertex="1" parent="1">
          <mxGeometry x="440" y="632.5" width="140" height="30" as="geometry" />
        </mxCell>
        <mxCell id="jPJzqkFTm8ux6lbCC3V2-66" value="这两种状态需要重新注册/订阅" style="text;html=1;align=center;verticalAlign=middle;resizable=0;points=[];autosize=1;strokeColor=none;" vertex="1" parent="1">
          <mxGeometry x="545" y="667.5" width="170" height="20" as="geometry" />
        </mxCell>
        <mxCell id="jPJzqkFTm8ux6lbCC3V2-67" value="host:ip" style="ellipse;whiteSpace=wrap;html=1;" vertex="1" parent="1">
          <mxGeometry x="190" y="1160" width="60" height="30" as="geometry" />
        </mxCell>
      </root>
    </mxGraphModel>
  </diagram>
</mxfile>
